<?xml version="1.0" standalone="no"?>
<!DOCTYPE svg PUBLIC "-//W3C//DTD SVG 20010904//EN"
 "http://www.w3.org/TR/2001/REC-SVG-20010904/DTD/svg10.dtd">
<svg version="1.0" xmlns="http://www.w3.org/2000/svg"
 width="512.000000pt" height="512.000000pt" viewBox="0 0 512.000000 512.000000"
 preserveAspectRatio="xMidYMid meet">
<metadata>
Created by potrace 1.15, written by Peter Selinger 2001-2017
</metadata>
<g transform="translate(0.000000,512.000000) scale(0.100000,-0.100000)"
fill="#000000" stroke="none">
<path d="M303 5052 c-86 -74 -272 -269 -286 -299 -33 -73 41 -14 241 191 78
80 142 151 142 156 0 23 -34 6 -97 -48z"/>
<path d="M503 5051 c-104 -90 -480 -475 -488 -500 -12 -37 2 -35 52 7 72 60
533 529 533 541 0 24 -33 8 -97 -48z"/>
<path d="M703 5051 c-112 -97 -680 -674 -687 -699 -23 -71 24 -29 442 391 188
189 342 349 342 356 0 24 -32 8 -97 -48z"/>
<path d="M903 5051 c-116 -100 -880 -875 -888 -899 -11 -37 1 -37 47 1 69 58
938 933 938 946 0 24 -33 8 -97 -48z"/>
<path d="M4503 5051 c-38 -32 -99 -90 -137 -129 -68 -69 -68 -70 -45 -82 22
-12 30 -6 151 119 70 72 128 136 128 141 0 23 -34 6 -97 -49z"/>
<path d="M4703 5051 c-38 -32 -117 -108 -176 -168 -104 -105 -107 -110 -89
-126 18 -17 26 -10 190 158 95 96 172 179 172 185 0 23 -33 7 -97 -49z"/>
<path d="M4903 5051 c-38 -33 -137 -128 -221 -213 -147 -148 -152 -155 -134
-171 18 -16 28 -8 235 202 119 121 217 224 217 230 0 24 -33 8 -97 -48z"/>
<path d="M4864 4818 c-224 -222 -233 -232 -217 -250 16 -18 23 -12 186 149
245 244 319 333 276 333 -6 0 -116 -104 -245 -232z"/>
<path d="M4913 4667 c-176 -174 -185 -184 -173 -206 12 -23 15 -21 137 100
199 198 273 289 232 289 -5 0 -94 -82 -196 -183z"/>
<path d="M1620 4773 c-80 -9 -232 -44 -313 -72 -479 -166 -830 -568 -940
-1075 -22 -100 -22 -112 -22 -1066 0 -1067 -2 -1024 65 -1232 144 -439 489
-784 926 -927 207 -67 189 -66 1229 -66 865 0 948 1 1035 18 293 56 559 196
765 402 206 206 346 472 402 765 17 87 18 170 18 1035 0 875 -1 947 -19 1040
-108 583 -535 1023 -1124 1157 -96 22 -106 22 -1042 24 -520 0 -961 -1 -980
-3z"/>
<path d="M4955 4508 c-137 -135 -144 -144 -130 -163 15 -18 18 -16 96 60 153
151 226 245 189 245 -6 0 -75 -64 -155 -142z"/>
<path d="M4967 918 c-73 -73 -159 -171 -192 -218 -77 -108 -246 -278 -355
-355 -124 -88 -364 -324 -347 -341 3 -3 16 -3 29 1 24 8 858 832 959 948 56
64 72 97 49 97 -6 0 -70 -60 -143 -132z"/>
<path d="M4723 478 c-452 -450 -492 -495 -421 -472 25 7 661 634 759 747 56
65 72 97 48 97 -7 0 -180 -168 -386 -372z"/>
<path d="M169 722 c-53 -53 -110 -114 -127 -135 -32 -37 -41 -67 -22 -67 14 0
270 251 270 265 0 7 -6 17 -13 23 -10 9 -35 -11 -108 -86z"/>
<path d="M209 563 c-74 -76 -150 -155 -167 -176 -32 -38 -41 -67 -22 -67 6 0
89 77 185 171 150 148 173 174 164 190 -5 11 -13 19 -17 19 -4 0 -68 -62 -143
-137z"/>
<path d="M4823 378 c-345 -342 -390 -394 -322 -373 25 8 468 441 560 548 56
64 72 97 48 97 -6 0 -135 -123 -286 -272z"/>
<path d="M228 381 c-187 -189 -231 -242 -214 -258 9 -9 92 66 280 256 155 155
178 182 167 195 -8 9 -17 16 -21 16 -4 0 -99 -94 -212 -209z"/>
<path d="M302 256 c-128 -129 -232 -239 -232 -245 0 -43 89 31 334 277 146
147 168 173 157 186 -8 9 -17 16 -21 16 -3 0 -111 -105 -238 -234z"/>
<path d="M4924 278 c-185 -182 -261 -265 -250 -275 14 -14 62 23 192 149 203
197 286 298 244 298 -6 0 -90 -78 -186 -172z"/>
<path d="M457 211 c-103 -105 -187 -195 -187 -200 0 -41 92 33 288 231 118
120 122 125 104 141 -18 16 -26 9 -205 -172z"/>
<path d="M611 165 c-77 -80 -141 -150 -141 -155 0 -19 30 -10 67 22 21 17 88
81 150 142 100 98 110 111 95 122 -9 8 -20 14 -23 14 -4 0 -70 -65 -148 -145z"/>
</g>
</svg>
